<svg width="40" height="40" viewBox="0 0 40 40" fill="none" xmlns="http://www.w3.org/2000/svg">
<g clip-path="url(#clip0)">
<rect width="40" height="40" fill="white" fill-opacity="0.5"/>
<path d="M39.3319 31.2756C39.3319 30.7196 38.8822 30.2699 38.3262 30.2699H4.09068L10.1087 24.2519C10.5011 23.8594 10.5011 23.2298 10.1087 22.8373C9.71619 22.4448 9.08659 22.4448 8.69411 22.8373L0.96721 30.5642C0.574732 30.9567 0.574732 31.5863 0.96721 31.9788L8.69411 39.7057C8.89035 39.9019 9.14382 40 9.40548 40C9.66713 40 9.9206 39.9019 10.1168 39.7057C10.5093 39.3132 10.5093 38.6836 10.1168 38.2911L4.09885 32.2731H38.3425C38.8822 32.2731 39.3319 31.8316 39.3319 31.2756Z" fill="black" fill-opacity="0.5"/>
</g>
<defs>
<clipPath id="clip0">
<rect width="40" height="40" fill="white"/>
</clipPath>
</defs>
</svg>
