<svg width="40" height="18" viewBox="0 0 40 18" fill="none" xmlns="http://www.w3.org/2000/svg">
<path d="M39.3319 9.2756C39.3319 8.71959 38.8822 8.26987 38.3262 8.26987H4.09068L10.1087 2.25188C10.5011 1.85941 10.5011 1.2298 10.1087 0.837327C9.71619 0.444849 9.08659 0.444849 8.69411 0.837327L0.96721 8.56423C0.574732 8.95671 0.574732 9.58631 0.96721 9.97878L8.69411 17.7057C8.89035 17.9019 9.14382 18 9.40548 18C9.66713 18 9.9206 17.9019 10.1168 17.7057C10.5093 17.3132 10.5093 16.6836 10.1168 16.2911L4.09885 10.2731H38.3425C38.8822 10.2731 39.3319 9.83161 39.3319 9.2756Z" fill="black" fill-opacity="1"/>
</svg>
