<svg width="45" height="45" viewBox="0 0 45 45" fill="none" xmlns="http://www.w3.org/2000/svg">
<g clip-path="url(#clip0)">
<path d="M17.2493 26.5461H17.2503C17.2511 26.5461 17.252 26.5459 17.2529 26.5459H29.2041C29.4983 26.5459 29.757 26.3507 29.8379 26.0678L32.4746 16.8393C32.5314 16.6404 32.4916 16.4265 32.3671 16.2613C32.2425 16.0962 32.0477 15.999 31.8408 15.999H15.729L15.2578 13.8785C15.1907 13.5769 14.9232 13.3623 14.6143 13.3623H10.6592C10.2951 13.3623 10 13.6574 10 14.0215C10 14.3856 10.2951 14.6807 10.6592 14.6807H14.0855C14.169 15.0564 16.3405 24.8284 16.4655 25.3906C15.7649 25.6951 15.2734 26.3936 15.2734 27.2051C15.2734 28.2955 16.1606 29.1826 17.251 29.1826H29.2041C29.5682 29.1826 29.8633 28.8875 29.8633 28.5234C29.8633 28.1593 29.5682 27.8643 29.2041 27.8643H17.251C16.8876 27.8643 16.5918 27.5685 16.5918 27.2051C16.5918 26.8422 16.8865 26.5469 17.2493 26.5461V26.5461ZM30.9669 17.3174L28.7068 25.2275H17.7797L16.0219 17.3174H30.9669Z" fill="black"/>
<path d="M16.5918 31.1602C16.5918 32.2505 17.4789 33.1377 18.5693 33.1377C19.6597 33.1377 20.5469 32.2505 20.5469 31.1602C20.5469 30.0698 19.6597 29.1826 18.5693 29.1826C17.4789 29.1826 16.5918 30.0698 16.5918 31.1602ZM18.5693 30.501C18.9327 30.501 19.2285 30.7967 19.2285 31.1602C19.2285 31.5236 18.9327 31.8193 18.5693 31.8193C18.2059 31.8193 17.9102 31.5236 17.9102 31.1602C17.9102 30.7967 18.2059 30.501 18.5693 30.501Z" fill="black"/>
<path d="M25.9082 31.1602C25.9082 32.2505 26.7953 33.1377 27.8857 33.1377C28.9761 33.1377 29.8633 32.2505 29.8633 31.1602C29.8633 30.0698 28.9761 29.1826 27.8857 29.1826C26.7953 29.1826 25.9082 30.0698 25.9082 31.1602ZM27.8857 30.501C28.2491 30.501 28.5449 30.7967 28.5449 31.1602C28.5449 31.5236 28.2491 31.8193 27.8857 31.8193C27.5223 31.8193 27.2266 31.5236 27.2266 31.1602C27.2266 30.7967 27.5223 30.501 27.8857 30.501Z" fill="black"/>
</g>
<rect width="45" height="45" rx="22.5" fill="#C4C4C4" fill-opacity="0.15"/>
<defs>
<clipPath id="clip0">
<rect x="10" y="12" width="22.5" height="22.5" fill="white"/>
</clipPath>
</defs>
</svg>
