<svg width="60" height="68" viewBox="0 0 60 68" fill="none" xmlns="http://www.w3.org/2000/svg">
<path d="M60 6.45629C60 10.0217 46.5687 12.9126 30 12.9126C13.4313 12.9126 0 10.0217 0 6.45629C0 2.89085 13.4313 -1.44891e-05 30 -1.44891e-05C46.5687 -1.44891e-05 60 2.89085 60 6.45629Z" fill="#485550"/>
<path d="M50.8876 61.5762C50.8876 61.5762 50.9757 64.0573 48.9928 64.9731C47.0777 65.8601 38.8574 67.8453 30.7869 67.9946C30.6264 68 30.4711 68 30.3157 68C30.1604 68 29.9999 68 29.8395 67.9946C21.7639 67.8453 13.5436 65.8601 11.6336 64.9731C9.65067 64.0573 9.73371 61.5762 9.73371 61.5762C9.73371 61.5762 4.15505 20.6979 4.12793 20.497C4.12849 20.5048 4.45785 20.5054 4.47762 20.506C4.80754 20.515 5.13746 20.524 5.46738 20.5337C5.97638 20.5481 6.48538 20.5619 6.99438 20.5764C7.64856 20.5944 8.30331 20.6131 8.9575 20.6312C9.72354 20.6528 10.489 20.6745 11.2551 20.6961C12.0979 20.7196 12.9414 20.7437 13.7842 20.7671C14.6712 20.7918 15.5576 20.8165 16.4439 20.8418C17.3405 20.867 18.2364 20.8917 19.1324 20.917L21.7475 20.9904C22.561 21.0133 23.3739 21.0361 24.1874 21.0584C24.9082 21.0789 25.6291 21.0993 26.3499 21.1198C26.9448 21.136 27.5391 21.1529 28.134 21.1697C28.5684 21.1818 29.0028 21.1938 29.4373 21.2064C29.6779 21.2131 29.918 21.2197 30.1581 21.2263C31.2202 21.2564 32.2896 21.1727 33.3522 21.1432C34.1652 21.1204 34.9775 21.0975 35.7905 21.0752L38.6597 20.9946C39.7026 20.9657 40.7449 20.9362 41.7877 20.9074C42.8588 20.8773 43.9299 20.8472 45.001 20.8177L48.1274 20.7304C49.0832 20.7034 50.0391 20.6769 50.9944 20.6498C51.8062 20.6275 52.618 20.6047 53.4298 20.5818C54.0399 20.565 54.6494 20.5475 55.2596 20.5307C55.6104 20.521 55.9612 20.5108 56.3126 20.5012C56.3222 20.5012 56.4985 20.5012 56.499 20.4958L50.8876 61.5762Z" fill="#4F7262"/>
<path d="M58.8433 16.6367C58.8433 16.6367 59.271 19.0239 56.5254 20.4964C53.9355 21.8805 42.3679 24.9904 30.0023 24.9518C17.6366 24.9904 6.06906 21.8805 3.47857 20.4964C0.73352 19.0239 1.16124 16.6367 1.16124 16.6367L0.0332031 6.56201C0.692488 9.91503 13.8563 12.5893 30.0023 12.5893C46.1483 12.5893 59.312 9.91503 59.9713 6.56201L58.8433 16.6367Z" fill="#4B6358"/>
</svg>

