<svg xmlns="http://www.w3.org/2000/svg" width="332.169" height="504.609" viewBox="0 0 332.169 504.609"><g transform="translate(-794 -182)"><path d="M32.884,240.626c-.274-.3-.548-.6-.818-.907-9.259-10.312-17.075-20.908-22.707-31.545q-.283-.528-.558-1.061a85.534,85.534,0,0,1-7.6-20.168c-.822-3.6-1.32-7.191-.656-10.384.932-4.474,4.1-7.931,7.387-11.174,3.418-3.372,7.058-6.634,10.606-9.962q1.9-1.761,3.72-3.541a94.711,94.711,0,0,0,9.291-10.254,44.161,44.161,0,0,0,7.638-14.7q.186-.648.341-1.3c.107-.436.214-.879.3-1.318s.178-.877.259-1.317l.115-.688c.041-.223.069-.454.108-.675.106-.666.183-1.347.276-2.014l0-.026c.054-.445.106-.889.158-1.333.257-2.536.4-5.113.52-7.691l.077-1.628q.067-1.256.138-2.507c.026-.491.06-.982.091-1.472.022-.356.042-.71.072-1.067.132-1.8.307-3.59.56-5.351.06-.42.124-.842.187-1.255a35.094,35.094,0,0,1,3.1-9.919l.019-.04a23.565,23.565,0,0,1,2.763-4.317,20.307,20.307,0,0,1,2.035-2.194,21.882,21.882,0,0,1,7.24-4.476c5.625-2.157,12.783-2.565,18.479-4.644C87.767,67.395,91.6,56.752,96.384,47.354q1.753-3.454,3.789-6.776,1.344-2.2,2.805-4.341a108.269,108.269,0,0,1,21.973-23.5A60.643,60.643,0,0,1,137,5.081a46.24,46.24,0,0,1,5.364-2.136,44.626,44.626,0,0,1,22.083-1.426C171.348,2.7,178.407,5.4,185.123,8.6q4.049,1.928,7.981,4.122c4.111,2.291,8.081,4.766,11.877,7.4.857.595,1.707,1.2,2.536,1.814q2.158,1.569,4.235,3.21a116.121,116.121,0,0,1,19.16,18.892c5.888,7.441,10.339,15.264,16.742,22.506.269.3.543.606.818.908q1.472,1.613,3.126,3.21C260.309,79,271.83,85.4,282.863,92.108q.58.353,1.158.707,1.827,1.119,3.625,2.26c11.419,7.239,22.248,15.805,30.349,24.969.272.3.539.612.8.917a59.72,59.72,0,0,1,11.005,17.67,43.916,43.916,0,0,1,2.546,17.74,55.881,55.881,0,0,1-2.335,13.615c-4.462,14.611-14.97,26.652-30.278,34.352q-1.214.615-2.468,1.187-1.315.6-2.671,1.159c-10.523,4.388-22.645,7.047-35.006,9.425q-6.225,1.184-12.435,2.359-2.762.526-5.5,1.068c-8.939,1.786-17.752,3.836-26.09,6.38q-2.9.882-5.7,1.847a117.05,117.05,0,0,0-18.284,7.927q-3.277,1.8-6.295,3.816-1.524,1.021-2.97,2.112c-9.994,7.486-16.976,16.972-24.229,26.291-1.047,1.348-2.1,2.694-3.159,4.021-1.4,1.751-2.828,3.486-4.309,5.185-9.2,10.593-22.658,15.538-41.946,16.212a36.9,36.9,0,0,1-13.9-1.7c-4.8-1.7-9.095-4.784-13.143-7.8-5.756-4.291-11.45-8.726-16.963-13.3-.321-.274-.641-.548-.979-.812A299.2,299.2,0,0,1,32.884,240.626Z" transform="translate(793.759 393.237)" fill="#05a45b" opacity="0.1"/><g transform="translate(849.364 182)"><g opacity="0.6"><g opacity="0.6"><path d="M159.136,415.223c0,4.9-25.756,8.873-57.527,8.873s-57.528-3.973-57.528-8.873,25.755-8.871,57.528-8.871S159.136,410.323,159.136,415.223Z" fill="#b5b5b5" opacity="0.6"/></g></g><path d="M151.123,326.524c0,5.513-22.223,9.983-49.636,9.983s-49.636-4.47-49.636-9.983,22.223-9.984,49.636-9.984S151.123,321.01,151.123,326.524Z" fill="#485550"/><path d="M136.047,411.754s.145,3.837-3.135,5.253c-3.169,1.372-16.77,4.441-30.123,4.672-.265.009-.522.009-.779.009s-.523,0-.788-.009c-13.362-.231-26.962-3.3-30.122-4.672-3.281-1.416-3.143-5.253-3.143-5.253s-9.23-63.209-9.275-63.52c0,.012.546.013.579.014l1.638.043,2.527.066,3.248.085,3.8.1,4.185.11q2.2.057,4.4.116l4.448.116,4.327.113,4.037.106,3.578.094,2.952.078,2.156.056,1.193.031c1.757.047,3.527-.083,5.285-.128q2.018-.054,4.034-.105l4.747-.125,5.176-.135,5.316-.139,5.173-.135,4.743-.124,4.03-.105,3.027-.08q.871-.021,1.742-.045c.016,0,.308,0,.309-.008Z" fill="#4f7262"/><path d="M103.414,335.938s11.563-20.037,16.273-30.908,14.561-34.744,17.559-43.911,14.131-23.233,17.773-30.269c3.84-7.417,15.32-11.7,22.362-15.2,10.556-5.243,16.782-11.5,23.912-20.859,3.836-5.036,9-8.925,12.785-14,9.724-13.041,22.436-24.173,33.786-35.792-1.116,12.991-2.406,26.525-9.292,37.617-8.262,13.308-22.8,20.5-36.005,27.983-14.232,8.064-28.822,18.089-37.913,31.969-6.425,9.805-31.477,56.061-34.475,60.964s-11.348,18.117-16.915,32.4Z" fill="#0b864d"/><path d="M9.415,155.393s19.7,7.247,38.113,30.268,35.116,54.355,38.756,82.706,8.351,67.571,8.351,67.571H82s-17.129-33.253-20.984-48.816c-2.52-10.174-4.593-21.2-6.889-31.706-.976-4.472-1.3-11.483-4.2-15.118-2.719-3.414-7.772-3.611-10.535-7.1-9.239-11.65-18.919-26.013-23.523-40.213C12.3,181.954,7.29,167.147,9.415,155.393Z" fill="#108750"/><path d="M86.784,336.009s14.417-121.074,16.63-134.147,8.493-27.569,18.485-36.948,15.988-22.738,19.414-35.526,22.269-33.537,28.264-39.79,24.839-19.611,24.839-19.611a71.741,71.741,0,0,1-6.282,11.653c-3.711,5.4-12.561,22.452-16.559,26.432S153.59,124.84,148.451,138.2s-20.556,62.241-27.123,85.547-17.914,112.193-17.914,112.193Z" fill="#05a45b"/><path d="M82,335.938s-12.419-16.626-9.422-48.6,18.2-52.224,25.695-59.473,31.69-34.1,33.618-38.368c0,0-11.135,19.184-11.135,23.022a23.641,23.641,0,0,1-3.64,11.51c-1.713,2.345-8.137,6.821-7.922,12.576s7.708,32.613,4.068,59.259-3,40.073-3,40.073Z" fill="#c0eb6a"/><path d="M.636,54.995s.346-1.706,8.523,5.116S31.47,85.69,37.037,93.15s18.414,31.122,25.481,34.958,12.632,18.545,17.129,30.908,22.268,52.864,23.767,65.653,6.852,111.269,6.852,111.269l-34.088-.853S49.669,186.514,48.528,173.156,44.816,129.388,41.391,122,26.545,90.735,15.7,76.808,1.707,57.98.636,54.995Z" fill="#05a45b"/><path d="M153.3,0S142.6,21.529,137.245,27.072s-13.061,21.363-15.2,27.733-7.494,30.459-14.774,38.559-9.422,6.181-9.422,15.56-9.636,44.337-14.132,52.011-6.21,43.058-2.355,60.963,5.567,84.837,2.355,93.79S82,335.938,82,335.938h21.412s14.347-73.539,17.344-88.461,17.121-71.373,7.281-125.337-3.855-57.505,1.284-67.335,4.854-19.492,7.708-22.618S153.3,7.318,153.3,0Z" fill="#07834a"/><path d="M122.9,335.938s.428-20.037-5.353-30.268-4.925-44.338-5.353-52.224,7.937-62.881,10.713-74.392S133.819,194.97,135.746,203s10.492,28.066,6.638,51.727-10.492,60.324-10.492,67.144v12.79Z" fill="#05a45b"/><path d="M74.294,334.873s-29.12-47.748-13.7-86.756,23.125,87.822,23.125,87.822Z" fill="#14a965"/><path d="M149.208,342.265s.708,3.692-3.835,5.969c-4.285,2.14-23.424,6.948-43.883,6.889-20.46.059-39.6-4.749-43.885-6.889-4.542-2.277-3.834-5.969-3.834-5.969L51.9,326.687c1.091,5.185,22.871,9.32,49.585,9.32s48.494-4.135,49.584-9.32Z" fill="#4b6358"/></g></g></svg>