<svg width="248" height="425" viewBox="0 0 248 425" fill="none" xmlns="http://www.w3.org/2000/svg">
<g opacity="0.600006">
<g opacity="0.600006">
<path opacity="0.600006" d="M158.5 415.223C158.5 420.123 132.744 424.096 100.973 424.096C69.2008 424.096 43.4453 420.123 43.4453 415.223C43.4453 410.323 69.2008 406.352 100.973 406.352C132.744 406.352 158.5 410.323 158.5 415.223Z" fill="#B5B5B5"/>
</g>
</g>
<path d="M150.487 326.524C150.487 332.037 128.264 336.507 100.851 336.507C73.4374 336.507 51.2148 332.037 51.2148 326.524C51.2148 321.01 73.4374 316.54 100.851 316.54C128.264 316.54 150.487 321.01 150.487 326.524Z" fill="#485550"/>
<path d="M135.41 411.754C135.41 411.754 135.556 415.591 132.275 417.007C129.107 418.379 115.506 421.448 102.153 421.679C101.888 421.688 101.631 421.688 101.374 421.688C101.116 421.688 100.851 421.688 100.586 421.679C87.2241 421.448 73.6234 418.379 70.4632 417.007C67.1825 415.591 67.3199 411.754 67.3199 411.754C67.3199 411.754 58.0898 348.545 58.0449 348.234C58.0459 348.246 58.5908 348.247 58.6235 348.248C59.1694 348.262 59.7152 348.276 60.2611 348.291C61.1032 348.313 61.9454 348.335 62.7876 348.357C63.8699 348.385 64.9532 348.414 66.0356 348.442C67.3031 348.475 68.5696 348.509 69.837 348.542C71.2316 348.579 72.6271 348.616 74.0216 348.652C75.4891 348.69 76.9556 348.728 78.4221 348.768C79.9055 348.807 81.3879 348.845 82.8703 348.884L87.197 348.997C88.543 349.033 89.888 349.068 91.234 349.103C92.4266 349.134 93.6193 349.166 94.812 349.197C95.7962 349.223 96.7795 349.249 97.7637 349.275C98.4825 349.293 99.2013 349.312 99.9201 349.331C100.318 349.342 100.715 349.352 101.113 349.362C102.87 349.409 104.639 349.279 106.397 349.234C107.743 349.198 109.087 349.163 110.432 349.129L115.179 349.004C116.904 348.959 118.629 348.914 120.354 348.869C122.126 348.822 123.899 348.776 125.671 348.73L130.843 348.595C132.425 348.554 134.006 348.513 135.587 348.471C136.93 348.436 138.273 348.401 139.616 348.366C140.626 348.34 141.634 348.313 142.644 348.286C143.224 348.272 143.805 348.256 144.386 348.241C144.402 348.241 144.694 348.241 144.695 348.233L135.41 411.754Z" fill="#4F7262"/>
<path d="M102.778 335.938C102.778 335.938 114.341 315.901 119.051 305.03C123.762 294.159 133.612 270.286 136.61 261.119C139.607 251.954 150.741 237.886 154.383 230.85C158.223 223.433 169.703 219.151 176.745 215.654C187.301 210.411 193.527 204.153 200.657 194.795C204.493 189.759 209.66 185.87 213.442 180.798C223.166 167.757 235.878 156.625 247.228 145.006C246.112 157.997 244.822 171.532 237.936 182.623C229.674 195.931 215.136 203.123 201.931 210.606C187.699 218.67 173.109 228.695 164.018 242.575C157.593 252.38 132.541 298.636 129.543 303.539C126.546 308.441 118.195 321.656 112.628 335.938H102.778Z" fill="#0B864D"/>
<path d="M8.77951 155.393C8.77951 155.393 28.4782 162.64 46.8926 185.661C65.307 208.683 82.009 240.016 85.6487 268.367C89.2884 296.717 93.9993 335.938 93.9993 335.938H81.366C81.366 335.938 64.2368 302.685 60.3821 287.122C57.8621 276.948 55.789 265.927 53.4934 255.416C52.5176 250.944 52.1923 243.933 49.2957 240.298C46.5767 236.884 41.5237 236.687 38.7607 233.201C29.5222 221.551 19.8416 207.188 15.2382 192.988C11.6612 181.954 6.65402 167.147 8.77951 155.393Z" fill="#108750"/>
<path d="M86.1475 336.009C86.1475 336.009 100.565 214.935 102.778 201.862C104.99 188.788 111.271 174.293 121.263 164.914C131.256 155.535 137.251 142.176 140.677 129.388C144.103 116.598 162.946 95.8509 168.941 89.598C174.937 83.3451 193.779 69.9869 193.779 69.9869C193.779 69.9869 191.21 76.2398 187.498 81.6395C183.787 87.04 174.937 104.092 170.939 108.072C166.942 112.051 152.954 124.84 147.815 138.199C142.676 151.556 127.259 200.44 120.692 223.746C114.127 247.051 102.778 335.939 102.778 335.939L86.1475 336.009Z" fill="#05A45B"/>
<path d="M81.3661 335.938C81.3661 335.938 68.9468 319.312 71.9444 287.339C74.9429 255.364 90.1457 235.115 97.6391 227.866C105.133 220.62 129.329 193.762 131.256 189.498C131.256 189.498 120.122 208.682 120.122 212.52C120.122 216.356 118.195 221.685 116.482 224.03C114.769 226.375 108.345 230.851 108.56 236.606C108.774 242.362 116.268 269.219 112.628 295.865C108.988 322.51 109.63 335.938 109.63 335.938H81.3661Z" fill="#07834A"/>
<path d="M0 54.9947C0 54.9947 0.345837 53.2891 8.52346 60.1105C16.7011 66.9319 30.8336 85.6898 36.4007 93.1505C41.9677 100.61 54.8151 124.272 61.8813 128.108C68.9467 131.946 74.5137 146.653 79.0105 159.016C83.5073 171.38 101.279 211.88 102.778 224.669C104.277 237.459 109.63 335.938 109.63 335.938L75.5419 335.085C75.5419 335.085 49.0331 186.514 47.8918 173.156C46.7496 159.798 44.1801 129.388 40.7545 121.998C37.3288 114.609 25.9088 90.7349 15.0598 76.8082C4.21079 62.8815 1.07116 57.9797 0 54.9947Z" fill="#05A45B"/>
<path d="M152.668 -0.000224117C152.668 -0.000224117 141.962 21.5286 136.609 27.0716C131.256 32.6136 123.548 48.4347 121.407 54.8049C119.266 61.1769 113.913 85.2636 106.633 93.3636C99.3525 101.464 97.2111 99.5449 97.2111 108.924C97.2111 118.304 87.5753 153.261 83.0795 160.935C78.5827 168.609 76.8694 203.993 80.724 221.898C84.5778 239.804 86.2911 306.735 83.0795 315.688C79.8669 324.641 81.3662 335.938 81.3662 335.938H102.778C102.778 335.938 117.125 262.399 120.122 247.477C123.12 232.556 137.243 176.104 127.403 122.14C117.561 68.1761 123.548 64.6346 128.687 54.8049C133.826 44.9761 133.541 35.3129 136.395 32.1865C139.251 29.06 152.668 7.31809 152.668 -0.000224117Z" fill="#07834A"/>
<path d="M122.263 335.938C122.263 335.938 122.691 315.901 116.91 305.67C111.129 295.439 111.985 261.332 111.557 253.446C111.129 245.56 119.493 190.565 122.269 179.054C125.046 167.542 133.183 194.97 135.11 202.998C137.038 211.027 145.602 231.064 141.747 254.725C137.894 278.386 131.256 315.049 131.256 321.869V334.659L122.263 335.938Z" fill="#05A45B"/>
<path d="M73.6582 334.873C73.6582 334.873 44.5378 287.125 59.9547 248.117C75.3715 209.109 83.0799 335.939 83.0799 335.939L73.6582 334.873Z" fill="#14A965"/>
<path d="M148.572 342.265C148.572 342.265 149.279 345.957 144.737 348.234C140.452 350.374 121.313 355.182 100.853 355.123C80.394 355.182 61.2551 350.374 56.969 348.234C52.4273 345.957 53.1349 342.265 53.1349 342.265L51.2686 326.687C52.3594 331.872 74.1393 336.007 100.853 336.007C127.567 336.007 149.347 331.872 150.438 326.687L148.572 342.265Z" fill="#4B6358"/>
</svg>

