<svg width="484" height="525" viewBox="0 0 484 525" fill="none" xmlns="http://www.w3.org/2000/svg">
<path opacity="0.1" d="M128.736 451.806C128.448 451.505 128.161 451.203 127.879 450.898C118.179 440.572 109.991 429.962 104.09 419.311C103.893 418.959 103.698 418.605 103.506 418.249C99.8327 411.507 97.1627 404.731 95.5479 398.055C94.6865 394.447 94.1652 390.854 94.8606 387.658C95.8365 383.177 99.1512 379.715 102.599 376.468C106.18 373.092 109.993 369.826 113.71 366.494C115.034 365.318 116.333 364.136 117.607 362.948C121.125 359.67 124.463 356.29 127.341 352.68C130.884 348.204 133.749 343.394 135.343 337.966C135.473 337.534 135.592 337.099 135.7 336.66C135.812 336.224 135.924 335.781 136.014 335.341C136.105 334.901 136.2 334.463 136.285 334.022L136.405 333.334C136.449 333.11 136.478 332.879 136.518 332.657C136.63 331.991 136.71 331.308 136.808 330.641L136.81 330.615C136.867 330.169 136.921 329.724 136.976 329.28C137.245 326.741 137.39 324.16 137.52 321.579L137.601 319.948C137.648 319.111 137.697 318.274 137.746 317.438C137.773 316.947 137.808 316.455 137.841 315.965C137.865 315.608 137.885 315.253 137.916 314.896C138.055 313.093 138.238 311.302 138.503 309.539C138.566 309.119 138.633 308.696 138.699 308.282C139.276 304.79 140.365 301.464 141.951 298.35L141.971 298.31C142.761 296.784 143.728 295.34 144.865 293.988C145.513 293.21 146.223 292.483 146.998 291.791C149.039 289.93 151.597 288.418 154.583 287.309C160.475 285.149 167.975 284.741 173.941 282.659C186.232 278.348 190.248 267.692 195.26 258.281C196.484 255.975 197.807 253.714 199.229 251.496C200.168 250.025 201.147 248.576 202.167 247.149C208.376 238.454 216.089 230.57 225.186 223.619C228.9 220.78 233.082 218.072 237.806 215.953C239.582 215.147 241.459 214.433 243.425 213.814C250.111 211.708 257.78 210.907 266.559 212.387C273.793 213.568 281.188 216.273 288.224 219.478C291.051 220.765 293.838 222.141 296.585 223.606C300.892 225.9 305.051 228.378 309.028 231.019C309.926 231.615 310.816 232.218 311.684 232.835C313.192 233.883 314.671 234.954 316.122 236.05C323.847 241.865 330.617 248.245 336.194 254.966C342.362 262.417 347.025 270.25 353.733 277.501C354.015 277.806 354.302 278.108 354.589 278.41C355.618 279.486 356.71 280.558 357.865 281.624C366.991 289.972 379.06 296.379 390.618 303.094C391.023 303.33 391.429 303.565 391.831 303.802C393.107 304.549 394.373 305.303 395.629 306.065C407.592 313.313 418.937 321.89 427.424 331.066C427.708 331.369 427.988 331.679 428.262 331.985C433.429 337.718 437.451 343.674 439.792 349.678C442.197 355.84 442.734 361.79 442.458 367.44C442.319 370.195 441.983 372.888 441.451 375.518C441.066 377.407 440.586 379.258 440.013 381.073C435.338 395.704 424.33 407.76 408.292 415.47C407.445 415.881 406.583 416.277 405.707 416.66C404.788 417.061 403.855 417.448 402.909 417.82C391.885 422.213 379.186 424.875 366.236 427.256C361.889 428.047 357.549 428.833 353.209 429.619C351.28 429.97 349.359 430.327 347.446 430.688C338.081 432.477 328.849 434.529 320.114 437.077C318.086 437.665 316.095 438.282 314.14 438.926C307.311 441.138 300.908 443.791 294.986 446.863C292.696 448.063 290.498 449.336 288.391 450.685C287.326 451.366 286.289 452.071 285.279 452.8C274.809 460.295 267.494 469.793 259.896 479.125C258.799 480.474 257.697 481.822 256.587 483.15C255.118 484.904 253.625 486.642 252.073 488.342C242.434 498.95 228.336 503.901 208.129 504.576C203.544 504.726 198.596 504.58 193.563 502.876C188.529 501.172 184.035 498.085 179.794 495.066C173.763 490.77 167.798 486.329 162.023 481.749C161.687 481.475 161.351 481.2 160.997 480.936C149.279 471.675 138.298 461.879 128.736 451.806Z" fill="#05A45B"/>
<g opacity="0.600006">
<g opacity="0.600006">
<path opacity="0.600006" d="M328.047 415.767C328.047 420.673 301.065 424.65 267.781 424.65C234.496 424.65 207.514 420.673 207.514 415.767C207.514 410.86 234.496 406.884 267.781 406.884C301.065 406.884 328.047 410.86 328.047 415.767Z" fill="#B5B5B5"/>
</g>
</g>
<path d="M319.653 326.951C319.653 332.471 296.372 336.947 267.653 336.947C238.934 336.947 215.653 332.471 215.653 326.951C215.653 321.431 238.934 316.955 267.653 316.955C296.372 316.955 319.653 321.431 319.653 326.951Z" fill="#485550"/>
<path d="M303.859 412.293C303.859 412.293 304.011 416.135 300.574 417.553C297.255 418.926 283.006 422 269.018 422.231C268.74 422.239 268.47 422.239 268.201 422.239C267.932 422.239 267.654 422.239 267.375 422.231C253.378 422 239.129 418.926 235.819 417.553C232.382 416.135 232.526 412.293 232.526 412.293C232.526 412.293 222.856 349.001 222.809 348.69C222.81 348.702 223.381 348.703 223.415 348.704C223.987 348.718 224.559 348.732 225.131 348.747C226.013 348.769 226.895 348.791 227.778 348.813C228.911 348.841 230.046 348.87 231.18 348.898C232.508 348.931 233.835 348.965 235.163 348.999C236.624 349.035 238.086 349.072 239.547 349.108C241.084 349.147 242.62 349.185 244.157 349.224C245.711 349.263 247.264 349.301 248.817 349.34L253.349 349.454C254.759 349.49 256.169 349.525 257.579 349.559C258.828 349.591 260.077 349.623 261.327 349.654C262.358 349.68 263.388 349.706 264.419 349.732C265.172 349.75 265.925 349.769 266.678 349.789C267.095 349.799 267.512 349.809 267.928 349.819C269.769 349.866 271.622 349.736 273.464 349.691C274.873 349.655 276.281 349.62 277.69 349.585L282.664 349.461C284.471 349.416 286.278 349.37 288.086 349.326C289.942 349.279 291.799 349.232 293.655 349.187L299.074 349.052C300.731 349.01 302.388 348.969 304.044 348.927C305.451 348.892 306.858 348.857 308.265 348.821C309.323 348.795 310.379 348.768 311.437 348.742C312.045 348.727 312.653 348.712 313.262 348.697C313.278 348.697 313.584 348.697 313.585 348.688L303.859 412.293Z" fill="#4F7262"/>
<path d="M269.672 336.378C269.672 336.378 281.786 316.315 286.72 305.429C291.655 294.544 301.974 270.639 305.115 261.461C308.255 252.284 319.919 238.197 323.734 231.152C327.758 223.725 339.784 219.438 347.162 215.936C358.22 210.687 364.742 204.42 372.211 195.05C376.23 190.007 381.644 186.114 385.606 181.035C395.793 167.977 409.11 156.83 421 145.196C419.831 158.204 418.48 171.756 411.266 182.862C402.611 196.187 387.38 203.389 373.547 210.881C358.637 218.956 343.352 228.995 333.828 242.892C327.098 252.71 300.852 299.027 297.712 303.936C294.572 308.844 285.823 322.077 279.991 336.378H269.672Z" fill="#0B864D"/>
<path d="M171.197 155.596C171.197 155.596 191.834 162.853 211.125 185.904C230.417 208.956 247.914 240.33 251.727 268.719C255.54 297.105 260.475 336.377 260.475 336.377H247.24C247.24 336.377 229.295 303.081 225.257 287.498C222.617 277.31 220.445 266.275 218.04 255.75C217.018 251.272 216.677 244.252 213.643 240.613C210.794 237.194 205.501 236.997 202.606 233.506C192.928 221.841 182.786 207.46 177.964 193.241C174.216 182.193 168.971 167.366 171.197 155.596Z" fill="#108750"/>
<path d="M252.25 336.449C252.25 336.449 267.354 215.217 269.672 202.126C271.99 189.035 278.57 174.521 289.037 165.13C299.506 155.738 305.787 142.363 309.375 129.557C312.965 116.751 332.705 95.9765 338.986 89.7154C345.267 83.4543 365.007 70.0786 365.007 70.0786C365.007 70.0786 362.315 76.3397 358.427 81.7464C354.538 87.1541 345.267 104.229 341.079 108.214C336.892 112.198 322.237 125.004 316.854 138.379C311.47 151.754 295.319 200.702 288.439 224.039C281.561 247.375 269.672 336.378 269.672 336.378L252.25 336.449Z" fill="#05A45B"/>
<path d="M247.241 336.378C247.241 336.378 234.23 319.73 237.37 287.715C240.511 255.698 256.438 235.423 264.288 228.165C272.14 220.908 297.487 194.016 299.507 189.746C299.507 189.746 287.842 208.956 287.842 212.798C287.842 216.639 285.823 221.975 284.028 224.323C282.234 226.671 275.504 231.153 275.729 236.916C275.954 242.679 283.804 269.572 279.991 296.252C276.178 322.932 276.851 336.378 276.851 336.378H247.241Z" fill="#C0EB6A"/>
<path d="M162 55.0669C162 55.0669 162.362 53.3591 170.929 60.1894C179.496 67.0198 194.302 85.8022 200.134 93.2726C205.966 100.742 219.425 124.435 226.828 128.276C234.23 132.118 240.062 146.845 244.773 159.225C249.484 171.604 268.101 212.157 269.672 224.963C271.243 237.77 276.851 336.378 276.851 336.378L241.139 335.524C241.139 335.524 213.368 186.758 212.172 173.383C210.976 160.007 208.284 129.557 204.695 122.157C201.106 114.759 189.143 90.8539 177.777 76.909C166.411 62.9641 163.122 58.0558 162 55.0669Z" fill="#05A45B"/>
<path d="M321.938 0.000162465C321.938 0.000162465 310.722 21.5571 305.114 27.1073C299.506 32.6566 291.431 48.4984 289.188 54.8769C286.945 61.2572 281.337 85.3755 273.71 93.486C266.083 101.597 263.84 99.6753 263.84 109.067C263.84 118.459 253.745 153.462 249.035 161.146C244.325 168.83 242.53 204.26 246.568 222.189C250.605 240.117 252.4 307.136 249.035 316.101C245.67 325.066 247.241 336.378 247.241 336.378H269.672C269.672 336.378 284.702 262.742 287.842 247.801C290.983 232.86 305.778 176.335 295.469 122.3C285.159 68.2656 291.431 64.7195 296.815 54.8769C302.198 45.0353 301.9 35.3595 304.89 32.2289C307.882 29.0984 321.938 7.32804 321.938 0.000162465Z" fill="#07834A"/>
<path d="M290.085 336.378C290.085 336.378 290.533 316.314 284.477 306.069C278.421 295.825 279.318 261.674 278.869 253.777C278.421 245.881 287.184 190.814 290.092 179.288C293.001 167.762 301.525 195.225 303.544 203.264C305.563 211.303 314.536 231.367 310.497 255.058C306.46 278.75 299.506 315.461 299.506 322.29V335.097L290.085 336.378Z" fill="#05A45B"/>
<path d="M239.165 335.311C239.165 335.311 208.658 287.501 224.809 248.442C240.96 209.383 249.036 336.378 249.036 336.378L239.165 335.311Z" fill="#14A965"/>
<path d="M317.647 342.713C317.647 342.713 318.388 346.409 313.629 348.689C309.14 350.832 289.09 355.647 267.656 355.587C246.222 355.647 226.172 350.832 221.682 348.689C216.924 346.409 217.665 342.713 217.665 342.713L215.71 327.114C216.853 332.306 239.67 336.446 267.656 336.446C295.642 336.446 318.459 332.306 319.602 327.114L317.647 342.713Z" fill="#4B6358"/>
</svg>
