<svg width="288" height="516" viewBox="0 0 288 516" fill="none" xmlns="http://www.w3.org/2000/svg">
<g opacity="0.600006">
<g opacity="0.600006">
<path opacity="0.600006" d="M191.5 415.223C191.5 420.123 165.744 424.096 133.973 424.096C102.201 424.096 76.4453 420.123 76.4453 415.223C76.4453 410.323 102.201 406.352 133.973 406.352C165.744 406.352 191.5 410.323 191.5 415.223Z" fill="#B5B5B5"/>
</g>
</g>
<path d="M183.487 326.524C183.487 332.037 161.264 336.507 133.851 336.507C106.437 336.507 84.2148 332.037 84.2148 326.524C84.2148 321.01 106.437 316.54 133.851 316.54C161.264 316.54 183.487 321.01 183.487 326.524Z" fill="#485550"/>
<path d="M168.41 411.754C168.41 411.754 168.556 415.591 165.275 417.007C162.107 418.379 148.506 421.448 135.153 421.679C134.888 421.688 134.631 421.688 134.374 421.688C134.116 421.688 133.851 421.688 133.586 421.679C120.224 421.448 106.623 418.379 103.463 417.007C100.182 415.591 100.32 411.754 100.32 411.754C100.32 411.754 91.0898 348.545 91.0449 348.234C91.0459 348.246 91.5908 348.247 91.6235 348.248C92.1694 348.262 92.7152 348.276 93.2611 348.291C94.1032 348.313 94.9454 348.335 95.7876 348.357C96.8699 348.385 97.9532 348.414 99.0356 348.442C100.303 348.475 101.57 348.509 102.837 348.542C104.232 348.579 105.627 348.616 107.022 348.652C108.489 348.69 109.956 348.728 111.422 348.768C112.906 348.807 114.388 348.845 115.87 348.884L120.197 348.997C121.543 349.033 122.888 349.068 124.234 349.103C125.427 349.134 126.619 349.166 127.812 349.197C128.796 349.223 129.78 349.249 130.764 349.275C131.483 349.293 132.201 349.312 132.92 349.331C133.318 349.342 133.715 349.352 134.113 349.362C135.87 349.409 137.639 349.279 139.397 349.234C140.743 349.198 142.087 349.163 143.432 349.129L148.179 349.004C149.904 348.959 151.629 348.914 153.354 348.869C155.126 348.822 156.899 348.776 158.671 348.73L163.843 348.595C165.425 348.554 167.006 348.513 168.587 348.471C169.93 348.436 171.273 348.401 172.616 348.366C173.626 348.34 174.634 348.313 175.644 348.286C176.224 348.272 176.805 348.256 177.386 348.241C177.402 348.241 177.694 348.241 177.695 348.233L168.41 411.754Z" fill="#4F7262"/>
<path d="M135.778 335.938C135.778 335.938 147.341 315.901 152.051 305.03C156.762 294.159 166.612 270.286 169.61 261.119C172.607 251.954 183.741 237.886 187.383 230.85C191.223 223.433 202.703 219.151 209.745 215.654C220.301 210.411 226.527 204.153 233.657 194.795C237.493 189.759 242.66 185.87 246.442 180.798C256.166 167.757 268.878 156.625 280.228 145.006C279.112 157.997 277.822 171.531 270.936 182.623C262.674 195.931 248.136 203.123 234.931 210.606C220.699 218.67 206.109 228.695 197.018 242.575C190.593 252.38 165.541 298.636 162.543 303.539C159.546 308.441 151.195 321.656 145.628 335.938H135.778Z" fill="#0B864D"/>
<path d="M41.7795 155.393C41.7795 155.393 61.4782 162.64 79.8926 185.661C98.307 208.683 115.009 240.016 118.649 268.367C122.288 296.717 126.999 335.938 126.999 335.938H114.366C114.366 335.938 97.2368 302.685 93.3821 287.122C90.8621 276.948 88.789 265.927 86.4934 255.416C85.5176 250.944 85.1923 243.933 82.2957 240.298C79.5767 236.884 74.5237 236.687 71.7607 233.201C62.5222 221.551 52.8416 207.188 48.2382 192.988C44.6612 181.954 39.654 167.147 41.7795 155.393Z" fill="#108750"/>
<path d="M119.147 336.009C119.147 336.009 133.565 214.935 135.778 201.862C137.99 188.788 144.271 174.293 154.263 164.914C164.256 155.535 170.251 142.176 173.677 129.388C177.103 116.598 195.946 95.8509 201.941 89.598C207.937 83.3451 226.779 69.9869 226.779 69.9869C226.779 69.9869 224.21 76.2398 220.498 81.6395C216.787 87.04 207.937 104.092 203.939 108.072C199.942 112.051 185.954 124.84 180.815 138.199C175.676 151.556 160.259 200.44 153.692 223.746C147.127 247.051 135.778 335.939 135.778 335.939L119.147 336.009Z" fill="#05A45B"/>
<path d="M114.366 335.938C114.366 335.938 101.947 319.312 104.944 287.339C107.943 255.364 123.146 235.115 130.639 227.866C138.133 220.62 162.329 193.762 164.256 189.498C164.256 189.498 153.122 208.682 153.122 212.52C153.122 216.356 151.195 221.685 149.482 224.03C147.769 226.375 141.345 230.851 141.56 236.606C141.774 242.362 149.268 269.219 145.628 295.865C141.988 322.51 142.63 335.938 142.63 335.938H114.366Z" fill="#07834A"/>
<path d="M33 54.9947C33 54.9947 33.3458 53.2891 41.5235 60.1105C49.7011 66.9319 63.8336 85.6898 69.4007 93.1505C74.9677 100.61 87.8151 124.272 94.8813 128.108C101.947 131.946 107.514 146.653 112.011 159.016C116.507 171.38 134.279 211.88 135.778 224.669C137.277 237.459 142.63 335.938 142.63 335.938L108.542 335.085C108.542 335.085 82.0331 186.514 80.8918 173.156C79.7496 159.798 77.1801 129.388 73.7545 121.998C70.3288 114.609 58.9088 90.7349 48.0598 76.8082C37.2108 62.8815 34.0712 57.9797 33 54.9947Z" fill="#05A45B"/>
<path d="M185.668 -0.000224117C185.668 -0.000224117 174.962 21.5286 169.609 27.0716C164.256 32.6136 156.548 48.4347 154.407 54.8049C152.266 61.1769 146.913 85.2636 139.633 93.3636C132.352 101.464 130.211 99.5449 130.211 108.924C130.211 118.304 120.575 153.261 116.079 160.935C111.583 168.609 109.869 203.993 113.724 221.898C117.578 239.804 119.291 306.735 116.079 315.688C112.867 324.641 114.366 335.938 114.366 335.938H135.778C135.778 335.938 150.125 262.399 153.122 247.477C156.12 232.556 170.243 176.104 160.403 122.14C150.561 68.1761 156.548 64.6346 161.687 54.8049C166.826 44.9761 166.541 35.3129 169.395 32.1865C172.251 29.06 185.668 7.3181 185.668 -0.000224117Z" fill="#07834A"/>
<path d="M155.263 335.938C155.263 335.938 155.691 315.901 149.91 305.67C144.129 295.439 144.985 261.332 144.557 253.446C144.129 245.56 152.493 190.565 155.269 179.054C158.046 167.542 166.183 194.97 168.11 202.998C170.038 211.027 178.602 231.064 174.747 254.725C170.894 278.386 164.256 315.049 164.256 321.869V334.659L155.263 335.938Z" fill="#05A45B"/>
<path d="M106.658 334.873C106.658 334.873 77.5378 287.125 92.9547 248.117C108.371 209.109 116.08 335.939 116.08 335.939L106.658 334.873Z" fill="#14A965"/>
<path d="M181.572 342.265C181.572 342.265 182.279 345.957 177.737 348.234C173.452 350.374 154.313 355.182 133.853 355.123C113.394 355.182 94.2551 350.374 89.969 348.234C85.4273 345.957 86.1349 342.265 86.1349 342.265L84.2686 326.687C85.3594 331.872 107.139 336.007 133.853 336.007C160.567 336.007 182.347 331.872 183.438 326.687L181.572 342.265Z" fill="#4B6358"/>
</svg>
