<svg width="20" height="20" viewBox="0 0 20 20" fill="none" xmlns="http://www.w3.org/2000/svg">
<path d="M19.826 18.98L14.9657 14.1197C16.2695 12.6208 17.0589 10.6652 17.0589 8.52772C17.0589 3.82262 13.2318 0 8.53113 0C3.82603 0 0.00341797 3.82705 0.00341797 8.52772C0.00341797 13.2284 3.83047 17.0554 8.53113 17.0554C10.6686 17.0554 12.6243 16.2661 14.1232 14.9623L18.9835 19.8226C19.0988 19.9379 19.254 20 19.4047 20C19.5555 20 19.7107 19.9424 19.826 19.8226C20.0566 19.592 20.0566 19.2106 19.826 18.98ZM1.19632 8.52772C1.19632 4.48337 4.48679 1.19734 8.5267 1.19734C12.571 1.19734 15.8571 4.4878 15.8571 8.52772C15.8571 12.5676 12.571 15.8625 8.5267 15.8625C4.48679 15.8625 1.19632 12.5721 1.19632 8.52772Z" fill="#05A45B"/>
</svg>
