<svg width="279" height="425" viewBox="0 0 279 425" fill="none" xmlns="http://www.w3.org/2000/svg">
<path d="M143.544 195.008C143.881 195.008 158.594 186.602 170.5 191.977C182.406 197.351 176.678 203.965 171.849 199.555C167.018 195.145 166.156 194.931 159.119 195.59C152.08 196.248 143.544 195.008 143.544 195.008Z" fill="#05A45B"/>
<path d="M127.82 205.481C127.82 205.481 118.497 206.308 117.935 198.178C117.373 190.047 153.99 187.842 158.819 192.803C163.649 197.764 161.066 200.243 161.066 200.243C160.392 200.107 161.179 193.63 156.798 195.973C152.417 198.315 147.812 201.76 143.656 202.174C139.501 202.587 140.286 201.899 136.805 203.276C133.323 204.654 127.82 205.481 127.82 205.481Z" fill="#108E54"/>
<path d="M139.051 105.715C139.051 105.715 137.703 104.061 135.008 104.061C132.312 104.061 116.138 100.753 114.117 85.0442C112.094 69.3361 121.529 14.7682 157.921 1.53925C166.488 -1.57572 175.509 -0.360887 181.132 8.88307C186.106 17.0583 187.575 28.0595 188.045 37.9984C189.417 67.059 175.308 102.641 148.772 103.921C147.495 103.983 146.158 103.977 145.024 104.703C144.489 105.044 144.022 105.539 143.465 105.823C142.796 106.164 139.674 106.48 139.051 105.715Z" fill="#05BF69"/>
<path d="M0 129.691C0 129.691 3.36987 127.211 4.71816 128.038C6.06558 128.864 20.2183 142.92 32.3477 148.707C44.4789 154.495 73.4568 173.511 95.6958 175.991C117.935 178.473 123.326 175.164 124 172.684C124.674 170.204 121.978 167.724 121.978 165.244C121.978 162.763 118.609 156.149 117.262 153.668C115.914 151.188 86.2612 103.234 45.1522 97.4456C24.9347 97.4456 13.4786 104.887 8.7613 113.982C4.04401 123.077 2.02244 129.691 0 129.691Z" fill="#16AA66"/>
<path d="M66.7184 8.98035C66.7184 8.98035 73.4573 4.84603 82.2177 8.15327C90.979 11.4605 105.806 16.4208 128.717 50.3193C151.63 84.2177 133.435 109.849 132.762 111.502C132.088 113.156 130.066 115.636 126.022 113.156C121.978 110.676 114.565 116.463 88.2833 80.9105C74.1524 61.7964 63.4939 38.1741 61.2394 12.2296C60.9969 9.43471 61.6037 8.01686 63.9938 7.7451C64.2959 7.70965 67.2814 8.63448 66.7184 8.98035Z" fill="#18B16B"/>
<path d="M136.141 129.315C131.666 118.179 126.985 107.135 122.151 96.2092C117.309 85.2875 112.302 74.4699 106.977 63.894C104.311 58.6104 101.562 53.3869 98.6663 48.2912C95.7561 43.2127 92.7478 38.1966 89.3429 33.6122C85.8767 29.0944 82.274 24.6969 78.6064 20.4068C76.7652 18.2704 74.8977 16.1672 72.9716 14.1447C71.9998 13.1468 71.0227 12.1554 70.0027 11.2327C69.4949 10.7676 68.974 10.3261 68.4399 9.90829C67.8945 9.53449 67.3516 9.05758 66.7178 8.98024C67.3534 9.04576 67.9041 9.51301 68.4548 9.87606C68.9967 10.2842 69.5238 10.716 70.0386 11.1725C71.0735 12.0759 72.0637 13.049 73.0495 14.0297C75.0045 16.0169 76.9018 18.0856 78.7736 20.1877C82.5042 24.4144 86.1543 28.7292 89.7019 33.2029C93.1952 37.7508 96.284 42.724 99.2748 47.7617C102.251 52.8155 105.079 57.9971 107.823 63.2399C113.308 73.732 118.471 84.4679 123.473 95.3102C128.468 106.163 133.301 117.113 137.951 128.211L136.141 129.315Z" fill="#4F7262"/>
<path d="M132.763 185.146C132.638 181.414 131.822 177.735 130.491 174.338C129.163 170.934 127.347 167.804 125.266 164.959C121.084 159.272 115.916 154.653 110.483 150.782C105.011 147.023 98.9239 144.434 93.2147 140.914C87.4617 137.574 81.685 134.305 75.77 131.465C63.9558 125.808 51.4761 121.976 38.7663 121.225C32.4205 120.794 26.0406 121.255 19.7509 122.4C18.1741 122.662 16.62 123.083 15.052 123.416C13.5023 123.858 11.9448 124.259 10.4012 124.74C7.32556 125.704 4.23936 126.819 1.46484 128.762C4.21835 126.774 7.30016 125.605 10.3689 124.59C11.908 124.084 13.4638 123.657 15.0126 123.19C16.5789 122.83 18.1338 122.383 19.7115 122.094C26.0038 120.844 32.4056 120.277 38.7873 120.605C51.5707 121.152 64.1773 124.804 76.1325 130.307C82.1149 133.068 87.9502 136.259 93.7479 139.508C96.645 141.169 99.5237 142.707 102.482 144.194C105.423 145.701 108.38 147.253 111.22 149.156C116.824 153.032 122.142 157.639 126.575 163.5C128.776 166.431 130.732 169.695 132.197 173.322C133.662 176.939 134.604 180.938 134.783 185.026L132.763 185.146Z" fill="#4F7262"/>
<path d="M161.065 142.093C161.065 142.093 169.152 143.747 171.847 143.747C174.002 143.748 176.084 142.488 178.257 142.251C183.353 141.698 188.459 142.259 193.578 141.825C209.456 140.478 225.135 135.854 239.878 128.526C253.726 121.641 265.841 111.398 278.773 102.562C278.776 102.56 279.002 102.421 279 102.408C279 102.408 276.98 89.1787 263.5 83.3913C242.711 74.4642 220.153 81.1581 200.781 92.0251C186.123 100.248 161.065 114.443 161.065 137.959V142.093Z" fill="#05A45B"/>
<path d="M136.296 161.931C144.939 150.348 154.274 139.314 165.044 130.603C167.738 128.442 170.499 126.399 173.358 124.574C176.202 122.763 179.055 120.999 181.93 119.272C187.679 115.821 193.5 112.54 199.431 109.572C205.36 106.601 211.412 103.983 217.585 101.868C223.757 99.7742 230.057 98.1522 236.446 97.4616C249.22 96.0652 262.096 97.5217 274.584 100.754C262.06 97.7451 249.186 96.5292 236.5 98.1479C230.162 98.946 223.924 100.67 217.816 102.86C211.709 105.072 205.723 107.782 199.862 110.844C193.996 113.902 188.242 117.271 182.556 120.811C179.715 122.581 176.884 124.399 174.079 126.245C171.285 128.073 168.585 130.116 165.951 132.275C155.422 140.979 146.285 151.985 137.795 163.596L136.296 161.931Z" fill="#4F7262"/>
<path d="M146.913 185.086C146.913 185.086 149.609 182.606 151.63 183.432C153.652 184.259 175.892 186.741 188.022 177.645C200.152 168.55 210.934 150.412 214.641 137.158C218.348 123.904 210.26 113.155 199.478 116.462C188.696 119.77 164.435 130.519 157.695 133.826C150.956 137.132 148.935 141.266 148.26 143.746C147.587 146.228 146.239 152.015 144.89 156.149C143.543 160.283 142.196 166.897 143.543 171.031C144.89 175.165 145.565 181.779 145.565 181.779L146.913 185.086Z" fill="#0B864D"/>
<path d="M120.925 251.265C120.925 251.265 108.121 225.634 91.9462 216.54C75.7728 207.445 63.6416 204.138 47.4682 213.232C31.2939 222.327 23.2076 231.422 19.1645 244.651C17.8153 250.438 19.1645 254.572 17.8153 257.053C16.4679 259.533 14.4463 261.186 14.4463 262.013C14.4463 262.84 16.4679 261.186 17.142 262.013C17.8153 262.84 21.8602 267.801 26.5775 273.589C30.1391 277.958 34.8196 281.199 39.4406 283.559C44.4293 286.107 49.4889 286.129 54.7682 287.126C64.6563 288.994 74.3159 293.383 84.3817 293.563C90.6557 293.676 96.9454 292.416 102.863 289.855C108.082 287.597 114.933 284.246 118.903 279.376C122.947 274.415 124.968 263.667 124.295 259.533C123.62 255.4 120.925 251.265 120.925 251.265Z" fill="#05A45B"/>
<path d="M130.836 271.498C130.445 270.422 129.862 269.194 129.208 268.144C128.565 267.058 127.83 266.049 127.049 265.094C125.47 263.2 123.657 261.603 121.719 260.256C117.794 257.65 113.356 256.244 108.865 255.687L107.173 255.505L106.327 255.418L105.476 255.412L102.068 255.393C99.7734 255.507 97.4769 255.605 95.184 255.769C90.5954 256.064 86.0103 256.469 81.4331 256.987C72.2752 257.994 63.1462 259.42 54.0627 261.205C44.9783 262.993 35.9438 265.18 26.9829 267.765C35.9036 264.979 44.91 262.588 53.9777 260.594C63.0446 258.603 72.1684 256.968 81.3324 255.753C85.9131 255.131 90.5061 254.622 95.1043 254.222C97.4034 254.005 99.7069 253.856 102.009 253.69L105.505 253.63L106.38 253.618L107.255 253.686L109.005 253.836C113.657 254.308 118.329 255.658 122.557 258.344C126.727 261.139 130.495 265.002 132.716 270.585L130.836 271.498Z" fill="#4F7262"/>
<path d="M153.877 233.867C154.775 233.867 176.79 199.969 218.348 200.245C259.906 200.52 261.31 204.723 266.027 211.131C270.745 217.538 272.345 229.113 272.766 232.11C273.187 235.108 273.693 235.005 274.114 236.553C274.535 238.105 273.609 237.691 272.766 239.036C270.038 243.39 269.096 248.183 265.657 251.943C253.157 265.608 232.988 269.79 216.806 271.081C198.812 272.516 180.001 268.233 165.387 254.628C162.398 251.844 161.447 246.611 158.594 244.34C154.439 241.033 153.652 238.828 153.877 237.725C154.102 236.623 153.877 233.867 153.877 233.867Z" fill="#18B16B"/>
<path d="M131.186 244.897C136.036 240.901 141.152 237.688 146.494 234.997C151.829 232.323 157.403 230.315 163.122 229.272C164.547 228.966 165.984 228.871 167.414 228.662C168.845 228.499 170.274 228.414 171.702 228.287C173.132 228.151 174.561 228.121 175.99 228.033C177.419 227.953 178.847 227.885 180.275 227.855C185.989 227.642 191.701 227.652 197.412 227.694C208.832 227.82 220.248 228.343 231.635 229.372C234.481 229.636 237.328 229.902 240.168 230.274C243.011 230.581 245.844 231.02 248.674 231.464C250.094 231.655 251.501 231.955 252.911 232.229C254.316 232.533 255.738 232.72 257.13 233.119L261.319 234.203L265.435 235.641L261.304 234.279L257.106 233.272C255.713 232.898 254.288 232.737 252.882 232.459C251.472 232.211 250.063 231.938 248.643 231.771C245.81 231.38 242.977 230.993 240.133 230.737C237.293 230.417 234.447 230.203 231.602 229.991C220.217 229.169 208.809 228.852 197.409 228.935C191.71 228.996 186.008 229.089 180.319 229.405C178.895 229.46 177.474 229.553 176.054 229.66C174.635 229.772 173.21 229.828 171.796 229.988C170.383 230.14 168.961 230.251 167.554 230.436C166.154 230.668 164.737 230.786 163.353 231.111C157.794 232.228 152.367 234.288 147.174 237.001C141.995 239.711 136.943 243.017 132.365 246.911L131.186 244.897Z" fill="#4F7262"/>
<path d="M80.1959 76.7768C80.1959 76.7768 82.2175 77.6039 80.8701 79.257C79.5218 80.9111 72.7821 85.8715 72.1088 94.9661C71.4346 104.061 68.7389 158.63 80.1959 176.819C91.6521 195.008 99.0651 189.221 103.109 191.701C107.152 194.181 110.522 195.834 115.914 198.315C121.304 200.796 127.37 204.103 127.37 204.103C127.37 204.103 138.827 190.874 140.174 182.606C141.522 174.339 138.152 143.747 134.109 133.825C130.494 124.957 126.689 116.207 122.736 107.56C119.215 99.8566 115.042 91.7523 109.049 86.5729C102.537 80.9434 93.9354 80.4933 86.3648 78.7543C85.414 78.5352 82.9564 78.5105 82.2175 77.6039C81.5434 76.7768 80.1959 76.7768 80.1959 76.7768Z" fill="#0B864D"/>
<path d="M134.562 223.826C131.555 218.221 128.912 212.432 126.608 206.387C125.47 203.362 124.394 200.297 123.499 197.139C122.58 194.007 121.904 190.692 121.215 187.574C119.748 181.257 118.057 174.986 116.337 168.739C114.606 162.494 112.801 156.278 110.94 150.087C107.207 137.711 103.259 125.425 98.895 113.36C96.7071 107.333 94.4168 101.357 91.8751 95.5414C90.6214 92.623 89.2626 89.7733 87.8171 86.9913C86.3655 84.2211 84.7834 81.5197 82.8267 79.2436C84.8123 81.4821 86.4338 84.1599 87.923 86.9064C89.4062 89.6648 90.8044 92.4941 92.0966 95.3931C94.7171 101.17 97.0871 107.11 99.3556 113.103C103.879 125.1 107.988 137.326 111.885 149.648C113.828 155.813 115.715 162.003 117.53 168.229C119.335 174.461 121.108 180.7 122.672 187.057C123.431 190.298 124.102 193.385 125.044 196.455C125.956 199.518 127.05 202.506 128.205 205.454C130.534 211.329 133.243 217.043 136.223 222.413L134.562 223.826Z" fill="#F9F3ED"/>
<path d="M132.761 272.175C132.761 272.175 119.844 253.158 118.946 238.001C118.047 222.843 128.942 216.918 135.457 215.539C141.972 214.162 149.159 221.74 152.417 221.603C155.674 221.465 164.996 221.189 167.355 226.15C169.714 231.111 182.069 249.163 167.355 264.045C152.642 278.927 144.147 277.136 140.476 275.068C136.804 273.002 132.761 272.175 132.761 272.175Z" fill="#0B864D"/>
<path d="M135.262 266.77C136.846 263.263 138.341 259.637 139.767 255.997C141.186 252.346 142.546 248.656 143.79 244.907C146.262 237.411 148.436 229.71 149.464 221.672C148.771 229.767 146.909 237.657 144.736 245.347C143.641 249.196 142.428 252.991 141.151 256.757C139.863 260.523 138.522 264.239 137.047 267.934L135.262 266.77Z" fill="#F9F3ED"/>
<path d="M151.017 299.228C152.014 297.198 153.549 295.463 154.919 293.846C160.78 286.926 168.111 281.575 176.185 279.796C179.198 279.132 182.28 278.978 185.326 279.34C203.949 281.551 217.784 304.354 225.315 323.418C227.461 328.851 229.074 334.658 229.754 340.652C230.322 345.669 228.624 352.508 230.478 357.059C231.153 358.712 230.478 360.366 229.131 360.366C227.784 360.366 227.784 359.539 226.435 360.366C225.088 361.192 217.505 366.464 211.861 365.12C206.218 363.777 190.044 361.813 168.395 342.59C161.616 336.572 153.781 329.642 149.659 320.412C146.752 313.904 148.08 306.096 150.742 299.827C150.827 299.624 150.92 299.424 151.017 299.228Z" fill="#07834A"/>
<g opacity="0.600006">
<g opacity="0.600006">
<path opacity="0.600006" d="M196.871 412.8C196.871 419.041 167.727 424.1 131.774 424.1C95.8239 424.1 66.6797 419.041 66.6797 412.8C66.6797 406.558 95.8239 401.499 131.774 401.499C167.727 401.499 196.871 406.558 196.871 412.8Z" fill="#B5B5B5"/>
</g>
</g>
<path d="M133.217 203.558C134.823 199.897 136.638 196.571 138.551 193.264L139.996 190.808L141.504 188.413C142.491 186.797 143.555 185.261 144.6 183.707C148.817 177.525 153.382 171.729 158.145 166.207C160.587 163.524 162.973 160.77 165.524 158.249C166.791 156.975 168.018 155.646 169.314 154.421L173.207 150.75C173.857 150.142 174.498 149.518 175.156 148.925L177.161 147.189L181.169 143.719C183.876 141.471 186.651 139.349 189.386 137.158C186.697 139.436 183.969 141.643 181.314 143.973L177.386 147.563L175.423 149.358C174.779 149.971 174.153 150.614 173.516 151.24L169.715 155.021C168.449 156.283 167.253 157.646 166.019 158.955C163.532 161.543 161.215 164.361 158.845 167.102C154.226 172.741 149.819 178.635 145.776 184.881C144.774 186.451 143.754 188.003 142.815 189.627L141.376 192.038L140.004 194.501C138.202 197.784 136.454 201.2 135.033 204.647L133.217 203.558Z" fill="#4F7262"/>
<path d="M136.324 305.55C137.255 304.479 138.176 303.691 139.186 302.936C140.179 302.183 141.233 301.568 142.309 301.027C144.473 299.979 146.774 299.373 149.089 299.225C151.408 299.049 153.72 299.46 155.943 300.128L157.601 300.696L159.194 301.399C160.264 301.85 161.292 302.39 162.327 302.915C166.449 305.059 170.483 307.399 174.43 309.939C176.424 311.163 178.36 312.519 180.326 313.803C182.264 315.151 184.206 316.487 186.125 317.874C193.791 323.437 201.24 329.455 208.316 336.086C215.371 342.727 222.106 349.967 227.856 358.299C221.978 350.102 215.148 343.041 208.013 336.581C200.856 330.136 193.339 324.31 185.621 318.949C183.688 317.612 181.732 316.327 179.785 315.03C177.807 313.798 175.861 312.493 173.861 311.323C169.897 308.889 165.852 306.657 161.758 304.639C160.731 304.147 159.708 303.636 158.668 303.226L157.114 302.582L155.552 302.085C153.462 301.511 151.317 301.178 149.192 301.39C147.071 301.577 144.983 302.18 143.026 303.18C142.055 303.695 141.103 304.275 140.216 304.979C139.336 305.655 138.448 306.476 137.768 307.285L136.324 305.55Z" fill="#4F7262"/>
<path d="M176.085 315.356C176.085 315.356 175.075 334.735 173.052 343.004C171.031 351.271 165.862 378.282 165.862 385.443C165.862 392.611 164.628 399.845 164.628 403.152C164.628 406.459 164.965 410.18 161.427 412.454C157.889 414.728 150.813 420.722 131.775 420.309C112.738 420.722 105.66 414.728 102.122 412.454C98.5844 410.18 98.9215 406.459 98.9215 403.152C98.9215 399.845 97.6887 392.611 97.6887 385.443C97.6887 378.282 92.5197 351.271 90.4981 343.004C88.4766 334.735 87.4653 315.356 87.4653 315.356L131.775 316.959L176.085 315.356Z" fill="#1C5E72"/>
<path d="M176.085 315.358C176.085 321.265 156.247 326.054 131.775 326.054C107.303 326.054 87.4653 321.265 87.4653 315.358C87.4653 309.45 107.303 304.661 131.775 304.661C156.247 304.661 176.085 309.45 176.085 315.358Z" fill="#10455B"/>
<path d="M120.523 325.706C120.523 325.706 128.274 324.814 128.274 321.3C128.274 317.787 127.6 273.076 127.6 271.04C127.6 269.005 130.127 184.88 130.464 181.779C130.801 178.679 134.002 146.848 134.002 141.473C134.002 136.1 137.683 125.557 137.443 116.67C137.203 107.781 147.925 55.4875 168.816 6.87023C168.816 6.87023 142.064 83.2344 141.39 107.762C140.715 132.291 141.19 133.826 140.966 139.888C140.742 145.952 138.944 155.322 139.843 157.527C140.742 159.732 136.84 185.361 137.443 189.221C138.046 193.079 136.024 234.143 136.249 239.654C136.474 245.167 136.249 275.377 136.474 279.15C136.698 282.924 137.709 321.921 139.056 323.367C140.404 324.814 146.694 325.641 146.694 325.641C146.694 325.641 129.111 326.747 120.523 325.706Z" fill="#4F7262"/>
</svg>
